<svg xmlns="http://www.w3.org/2000/svg" viewBox="0 0 539 165.73"><title>Fortescue logo - Brandlogos.net</title><path d="M197.34,301.13A82.87,82.87,0,1,0,280.18,384,83,83,0,0,0,197.34,301.13Zm0,132.59A49.69,49.69,0,1,1,247,384,49.76,49.76,0,0,1,197.34,433.72Z" transform="translate(-114.5 -301.13)" style="fill:lime"/><polygon points="188.47 105.93 188.47 51.45 224.84 51.45 224.84 59.98 198.06 59.98 198.06 74.77 220.51 74.77 220.51 83.25 198.06 83.25 198.06 105.93 188.47 105.93" style="fill:#001d44"/><path d="M407.21,375.9a19.87,19.87,0,0,0-3.33-.23c-5.79,0-10.17,3.74-10.17,10.11v20.93h-9.12V366.84h9.12v5.9c1.75-3.74,5.85-6.14,10.93-6.14a15.64,15.64,0,0,1,2.57.18Z" transform="translate(-114.5 -301.13)" style="fill:#001d44"/><path d="M417.67,374.56h-5.55v-7.72h5.55V355.15h8.94v11.69H435v7.72h-8.36v20.69c0,3.57,2,4,5.32,4a25.72,25.72,0,0,0,3.74-.23v7.66a38.1,38.1,0,0,1-6.31.53c-7.6,0-11.69-2.34-11.69-10.46Z" transform="translate(-114.5 -301.13)" style="fill:#001d44"/><path d="M447.72,381.92H466c-.06-4.38-2.81-8.18-8.59-8.18-4.68,0-8.3,2.81-9.7,8.18m-9.18,4.85c0-11.69,7.89-20.69,19-20.69,11.52,0,17.65,8.71,17.65,19.64v3H447.25c.7,6.84,4.79,11,10.64,11,4.5,0,8.07-2.28,9.24-6.37l7.83,3c-2.81,7-9.12,11.17-17.07,11.17-11.4,0-19.35-8.42-19.35-20.75" transform="translate(-114.5 -301.13)" style="fill:#001d44"/><path d="M485.19,393.62A13.78,13.78,0,0,0,496.71,400c3.86,0,7.42-1.34,7.42-4.91,0-3.39-3.33-3.8-9.65-5.09s-13.5-2.86-13.5-11.4c0-7.31,6.37-12.63,15.55-12.63,7,0,13.21,3.1,16.08,7.54l-6.14,5.55A12.13,12.13,0,0,0,496,373.51c-3.74,0-6.14,1.7-6.14,4.33,0,2.86,2.86,3.39,7.89,4.5,6.78,1.46,15.26,2.86,15.26,12,0,8.07-7.37,13.21-16.37,13.21-7.37,0-14.73-3-18.3-8.42Z" transform="translate(-114.5 -301.13)" style="fill:#001d44"/><path d="M594.75,406.71h-9.12v-4.27a13.83,13.83,0,0,1-10.87,5.09c-8.36,0-13.5-5.67-13.5-14.26V366.84h9.12v24.44c0,4.85,2.1,8,7.07,8,4.09,0,8.18-3,8.18-8.71V366.84h9.12Z" transform="translate(-114.5 -301.13)" style="fill:#001d44"/><path d="M610.59,381.92h18.3c-.06-4.38-2.81-8.18-8.59-8.18-4.68,0-8.36,2.81-9.7,8.18m-9.18,4.85c0-11.69,7.89-20.69,19-20.69,11.52,0,17.65,8.71,17.65,19.64v3H610.12c.7,6.84,4.79,11,10.64,11,4.5,0,8.07-2.28,9.24-6.37l7.83,3c-2.81,7-9.12,11.17-17.07,11.17-11.4,0-19.35-8.42-19.35-20.75" transform="translate(-114.5 -301.13)" style="fill:#001d44"/><path d="M359.56,375a11.93,11.93,0,1,0,12,11.93,12,12,0,0,0-12-11.93m0,32.56a20.64,20.64,0,1,1,20.75-20.64,20.7,20.7,0,0,1-20.75,20.64" transform="translate(-114.5 -301.13)" style="fill:#001d44"/><path d="M537.92,398.76a11.93,11.93,0,1,1,0-23.85,12.22,12.22,0,0,1,9.59,4.68c.06.06.12.18.18.23l7.6-4.33a3.25,3.25,0,0,0-.35-.47,20.61,20.61,0,1,0,.94,22.21l-7.78-3.92a12.3,12.3,0,0,1-10.17,5.44" transform="translate(-114.5 -301.13)" style="fill:#001d44"/><path d="M643.62,400.81v5.61h-1.4v-5.61h-2.16v-1.23h5.73v1.23Z" transform="translate(-114.5 -301.13)" style="fill:#001d44"/><path d="M649.47,406.48l-1.64-5v5h-1.34v-6.84h1.93l1.58,4.85,1.58-4.85h1.93v6.84h-1.34v-5l-1.64,5Z" transform="translate(-114.5 -301.13)" style="fill:#001d44"/></svg>