<svg viewBox="0 0 738 159" width="738px" height="156px" xmlns="http://www.w3.org/2000/svg">
  <g fill="#CD2C2C">
    <g transform="matrix(1, 0, 0, 1, -115.350021, -111.850006)">
      <circle  cx="268.6" cy="134.6" r="13.8"></circle>
      <path  d="M282,233.1l0-77.2h-37.6v7.1c5.2,0,12,2.5,12,14.8l0,77.3l37.6,0V248C288.9,248,282,245.4,282,233.1z"></path>
    </g>
    <path  d="M 564.65 121.25 L 564.65 73.75 C 564.65 47.75 543.65 41.85 532.45 41.85 C 514.45 41.85 504.65 52.55 501.45 59.25 C 501.45 59.25 501.05 46.35 501.05 43.95 L 465.05 43.95 L 465.05 51.05 C 470.25 51.05 477.05 53.65 477.05 65.95 L 477.05 121.25 C 477.05 133.55 470.15 136.15 465.05 136.15 L 465.05 143.25 L 502.45 143.25 L 514.45 143.25 L 514.45 136.15 C 509.25 136.15 502.45 133.55 502.45 121.25 L 502.45 85.35 C 502.45 78.25 503.55 72.65 505.75 68.25 C 509.55 60.85 516.55 57.35 522.35 57.35 C 529.45 57.35 534.95 60.55 537.55 67.85 C 538.75 71.05 539.15 75.05 539.15 79.85 L 539.15 143.15 L 576.55 143.15 L 576.55 136.15 C 571.45 136.15 564.65 133.55 564.65 121.25 Z"></path>
    <path  d="M 235.75 41.95 C 206.15 41.95 184.35 63.85 184.35 93.65 C 184.35 123.45 206.15 145.35 235.75 145.35 C 265.35 145.35 287.15 123.45 287.15 93.65 C 287.15 63.85 265.45 41.95 235.75 41.95 Z M 242.65 133.25 C 227.65 135.95 216.05 121.65 211.85 97.75 C 207.65 74.25 213.95 56.35 228.65 53.65 C 243.65 50.95 255.35 65.55 259.45 89.15 C 263.65 113.05 257.65 130.55 242.65 133.25 Z"></path>
    <path  d="M 686.55 41.95 C 656.95 41.95 635.15 63.85 635.15 93.65 C 635.15 123.45 656.95 145.35 686.55 145.35 C 716.15 145.35 737.95 123.45 737.95 93.65 C 737.85 63.85 716.15 41.95 686.55 41.95 Z M 693.35 133.25 C 678.35 135.95 666.75 121.65 662.55 97.75 C 658.35 74.25 664.65 56.35 679.35 53.65 C 694.35 50.95 706.05 65.55 710.15 89.15 C 714.35 113.05 708.35 130.55 693.35 133.25 Z"></path>
    <path  d="M 136.45 149.25 C 131.15 149.25 126.25 144.95 124.35 142.55 C 110.35 124.35 99.15 73.65 79.85 72.35 C 97.95 68.95 110.95 56.65 110.95 38.35 C 110.95 22.15 101.85 1.55 63.25 1.55 L 0.05 1.55 L 0.05 9.65 C 5.35 9.65 12.05 12.15 12.05 24.55 L 12.05 120.25 C 12.05 132.65 5.35 135.15 0.05 135.15 L 0.05 143.25 L 50.75 143.25 L 50.75 135.15 C 45.45 135.15 38.75 132.65 38.75 120.25 L 38.75 74.15 L 51.95 74.15 C 72.05 74.15 78.15 122.25 94.85 144.65 C 100.85 152.65 110.95 157.45 122.05 157.45 L 136.95 157.45 L 136.95 149.35 C 136.85 149.25 136.45 149.25 136.45 149.25 Z M 51.95 65.35 C 51.65 65.35 38.75 65.35 38.75 65.35 L 38.75 15.65 C 38.75 15.65 50.35 15.75 53.95 15.75 C 76.75 15.75 81.35 27.55 81.35 40.45 C 81.35 51.55 76.85 64.95 51.95 65.35 Z"></path>
    <path  d="M 407.95 1.55 L 297.75 1.55 L 297.75 30.75 L 306.25 30.75 C 306.25 19.25 312.75 15.75 327.55 15.75 L 339.55 15.75 L 339.55 120.25 C 339.55 132.65 332.65 135.25 327.55 135.25 L 327.55 143.25 L 378.25 143.25 L 378.25 135.25 C 373.05 135.25 366.25 132.55 366.25 120.25 L 366.25 15.75 L 378.25 15.75 C 393.05 15.75 399.55 19.35 399.55 30.75 L 408.05 30.75 L 407.95 1.55 Z"></path>
    <g transform="matrix(1, 0, 0, 1, -115.350021, -111.850006)">
      <circle  cx="547.4" cy="134.6" r="13.8"></circle>
      <path  d="M560.9,233.1l0-77.2h-37.6v7.1c5.2,0,12,2.6,12,14.9l0,55.3c0,12.3-6.9,14.9-12,14.9v7.1H573V248
				C567.8,248,560.9,245.4,560.9,233.1z"></path>
    </g>
    <path  d="M 613.85 21.75 L 600.75 21.75 C 600.75 35.85 589.45 47.25 575.55 47.25 L 575.55 54.35 L 588.35 54.35 L 588.35 121.65 C 588.35 137.05 594.05 143.25 610.75 143.25 L 625.95 143.25 L 625.95 136.15 C 620.75 136.15 613.85 133.55 613.85 121.25 C 613.85 118.75 613.85 54.25 613.85 54.25 L 628.05 54.25 L 628.05 43.95 L 613.85 43.95 L 613.85 21.75 Z"></path>
  </g>
</svg>